<svg width="1440" height="863" viewBox="0 0 1440 863" fill="none" xmlns="http://www.w3.org/2000/svg">
<g opacity="0.3">
<path d="M622.022 0C662.976 161.429 604.896 267.209 396.499 366.074C188.102 464.939 66.5088 508.638 0 679.259V0H622.022Z" fill="url(#paint0_linear_329_659)"/>
<path d="M1075.14 0C1150.66 160.274 1139.14 344.639 971.462 502.878C832.32 634.198 724.166 708.851 653.894 862.244H1440V0H1075.14Z" fill="url(#paint1_linear_329_659)"/>
<path opacity="0.5" d="M757.018 862.244C757.018 862.244 682.176 684.536 880.589 598.311C1079 512.087 1182.66 469.595 1222.35 329.308C1262.04 189.021 1318.46 139.58 1440 125.784V862.244H757.018Z" fill="url(#paint2_linear_329_659)"/>
<path opacity="0.5" d="M1440 717.887C1263.3 812.147 989.395 708.678 804.403 568.426C630.701 436.726 423.629 393.459 245.702 464.577C48.4416 543.403 0 749.583 0 749.583V862.244H1440V717.887Z" fill="url(#paint3_linear_329_659)"/>
<path opacity="0.5" d="M0 436.209C174.509 514.38 302.592 398.27 318.317 301.699C334.042 205.128 339.149 45.5092 541.382 0H0V436.209Z" fill="url(#paint4_linear_329_659)"/>
<path opacity="0.5" d="M1440 289.283C1351.62 413.205 1177.56 430.57 1045.71 320.082C931.258 224.183 788.179 114.506 595.142 125.784C339.36 140.735 223.949 121.387 154.829 0H1440V289.283Z" fill="url(#paint5_linear_329_659)"/>
<path opacity="0.5" d="M0 185.296C69.0624 344.656 304.013 335.051 403.334 223.476C491.501 124.422 580.742 56.8046 751.622 97.3473C922.502 137.89 1005.06 174.967 1100.1 135.303C1195.14 95.6401 1195.14 0 1195.14 0H0V185.296Z" fill="url(#paint6_linear_329_659)"/>
<path opacity="0.5" d="M0 553.802C0 553.802 176.851 437.019 345.542 536.229C526.022 642.371 524.102 770.742 737.242 862.227H0V553.802Z" fill="url(#paint7_linear_329_659)"/>
</g>
<defs>
<linearGradient id="paint0_linear_329_659" x1="120.257" y1="-0.341274" x2="325.517" y2="453.132" gradientUnits="userSpaceOnUse">
<stop stop-color="#F2EA00"/>
<stop offset="1" stop-color="#F2B100"/>
</linearGradient>
<linearGradient id="paint1_linear_329_659" x1="1419.96" y1="882.626" x2="1060.27" y2="342.919" gradientUnits="userSpaceOnUse">
<stop stop-color="#F2EA00"/>
<stop offset="1" stop-color="#F2B100"/>
</linearGradient>
<linearGradient id="paint2_linear_329_659" x1="1043.14" y1="952.359" x2="1201.33" y2="366.167" gradientUnits="userSpaceOnUse">
<stop stop-color="#F24500"/>
<stop offset="0.3401" stop-color="#F28000"/>
<stop offset="0.7907" stop-color="#F2C900"/>
<stop offset="1" stop-color="#F2E600"/>
</linearGradient>
<linearGradient id="paint3_linear_329_659" x1="587.361" y1="301.373" x2="689.687" y2="768.712" gradientUnits="userSpaceOnUse">
<stop stop-color="#F24500"/>
<stop offset="0.3401" stop-color="#F28000"/>
<stop offset="0.7907" stop-color="#F2C900"/>
<stop offset="1" stop-color="#F2E600"/>
</linearGradient>
<linearGradient id="paint4_linear_329_659" x1="104.89" y1="65.4862" x2="426.389" y2="432.32" gradientUnits="userSpaceOnUse">
<stop stop-color="#F24500"/>
<stop offset="0.3401" stop-color="#F28000"/>
<stop offset="0.7907" stop-color="#F2C900"/>
<stop offset="1" stop-color="#F2E600"/>
</linearGradient>
<linearGradient id="paint5_linear_329_659" x1="676.619" y1="-102.612" x2="1401.05" y2="723.967" gradientUnits="userSpaceOnUse">
<stop stop-color="#F24500"/>
<stop offset="0.3401" stop-color="#F28000"/>
<stop offset="0.7907" stop-color="#F2C900"/>
<stop offset="1" stop-color="#F2E600"/>
</linearGradient>
<linearGradient id="paint6_linear_329_659" x1="800.459" y1="344.299" x2="516.635" y2="-81.5626" gradientUnits="userSpaceOnUse">
<stop stop-color="#F25A00"/>
<stop offset="0.2506" stop-color="#F28000"/>
<stop offset="0.7625" stop-color="#F2C900"/>
<stop offset="1" stop-color="#F2E600"/>
</linearGradient>
<linearGradient id="paint7_linear_329_659" x1="502.233" y1="1023.96" x2="241.982" y2="633.471" gradientUnits="userSpaceOnUse">
<stop stop-color="#F24500"/>
<stop offset="0.3401" stop-color="#F28000"/>
<stop offset="0.7907" stop-color="#F2C900"/>
<stop offset="1" stop-color="#F2E600"/>
</linearGradient>
</defs>
</svg>
